<?xml version="1.0" encoding="UTF-8" standalone="no"?>
<svg
   class="geolonia-svg-map"
   viewBox="0 0 1300 800"
   version="1.1"
   id="svg73"
   sodipodi:docname="japan.svg"
   width="1300"
   height="800"
   inkscape:version="1.4.2 (f4327f4, 2025-05-13)"
   xmlns:inkscape="http://www.inkscape.org/namespaces/inkscape"
   xmlns:sodipodi="http://sodipodi.sourceforge.net/DTD/sodipodi-0.dtd"
   xmlns="http://www.w3.org/2000/svg"
   xmlns:svg="http://www.w3.org/2000/svg"
   xmlns:rdf="http://www.w3.org/1999/02/22-rdf-syntax-ns#"
   xmlns:cc="http://creativecommons.org/ns#"
   xmlns:dc="http://purl.org/dc/elements/1.1/">
  <defs
     id="defs73" />
  <sodipodi:namedview
     id="namedview73"
     pagecolor="#ffffff"
     bordercolor="#000000"
     borderopacity="0.25"
     inkscape:showpageshadow="2"
     inkscape:pageopacity="0.0"
     inkscape:pagecheckerboard="0"
     inkscape:deskcolor="#d1d1d1"
     inkscape:zoom="0.6257895"
     inkscape:cx="471.40452"
     inkscape:cy="552.10258"
     inkscape:window-width="1920"
     inkscape:window-height="1129"
     inkscape:window-x="-8"
     inkscape:window-y="-8"
     inkscape:window-maximized="1"
     inkscape:current-layer="g73" />
  <title
     id="title1">Japanese Prefectures</title>
  <desc
     id="desc1">Created by Geolonia (https://geolonia.com/).</desc>
  <g
     class="svg-map"
     transform="matrix(1.028807,0,0,1.028807,-47.544239,-28.806583)"
     id="g73">
    <g
       class="prefectures"
       transform="rotate(20,752.52162,814.29128)"
       id="g71">
      <g
         class="okinawa kyushu-okinawa prefecture"
         data-code="47"
         stroke-linejoin="round"
         fill="#eeeeee"
         fill-rule="nonzero"
         stroke="#000000"
         stroke-width="1"
         transform="rotate(-20,1410.8113,297.02814)"
         id="g10">
        <title
           id="title2">沖縄 / Okinawa</title>
        <polygon
           points="4,111 0,110 4,109 6,110 "
           id="polygon2" />
        <polygon
           points="51,129 39,124 42,122 44,125 46,118 48,121 55,123 "
           id="polygon3" />
        <polygon
           points="135,108 142,114 132,113 130,110 132,110 130,108 133,105 132,100 "
           id="polygon4" />
        <polygon
           points="219,23 223,21 225,23 224,28 "
           id="polygon5" />
        <polygon
           points="73,117 77,112 79,113 73,120 72,126 66,127 64,125 67,122 63,119 71,120 "
           id="polygon6" />
        <polygon
           points="285,8 292,10 292,14 299,13 298,11 307,0 309,5 309,9 305,15 300,15 299,19 293,19 294,21 288,25 281,25 286,34 281,31 276,39 280,41 270,46 270,38 277,32 275,24 280,25 287,20 291,17 286,15 "
           id="polygon7" />
        <polygon
           points="127,106 126,103 128,104 "
           id="polygon8" />
        <polygon
           points="279,8 279,6 283,8 "
           id="polygon9" />
        <polygon
           points="293,11 294,13 292,12 "
           id="polygon10" />
      </g>
      <g
         class="kagoshima kyushu kyushu-okinawa prefecture"
         data-code="46"
         stroke-linejoin="round"
         fill="#eeeeee"
         fill-rule="nonzero"
         stroke="#000000"
         stroke-width="1"
         transform="translate(96,17)"
         id="g25">
        <title
           id="title10">鹿児島 / Kagoshima</title>
        <polygon
           points="26,951 23,952 23,949 "
           id="polygon11" />
        <polygon
           points="41,965 35,964 33,960 32,954 39,950 48,956 47,961 "
           id="polygon12" />
        <polygon
           points="58,952 62,949 63,939 70,929 71,938 64,953 64,958 59,959 "
           id="polygon13" />
        <polygon
           points="66,910 50,918 50,913 55,910 59,898 53,889 54,884 48,881 53,879 54,883 57,884 61,878 54,872 50,874 44,887 46,898 51,901 49,906 43,907 40,901 27,901 28,897 25,896 27,894 22,890 31,890 35,880 32,871 27,867 30,860 28,848 31,846 35,848 38,844 43,848 52,844 57,850 56,852 61,859 66,864 65,869 70,871 73,880 80,881 80,888 78,891 75,890 70,896 75,899 73,903 76,902 69,905 "
           id="polygon14" />
        <polygon
           points="34,836 33,838 31,837 "
           id="polygon15" />
        <polygon
           points="30,844 27,848 24,842 29,840 "
           id="polygon16" />
        <polygon
           points="0,874 4,868 6,865 7,867 2,875 "
           id="polygon17" />
        <polygon
           points="9,861 14,861 12,864 "
           id="polygon18" />
        <polygon
           points="279,146 289,144 284,149 280,150 "
           id="polygon19"
           transform="rotate(-20,793.53261,523.98147)" />
        <polygon
           points="303,132 300,128 301,126 301,118 306,118 305,122 309,126 308,129 "
           id="polygon20"
           transform="rotate(-20,793.53261,523.98147)" />
        <polygon
           points="359,97 365,93 363,98 360,99 "
           id="polygon21"
           transform="rotate(-20,793.53261,523.98147)" />
        <polygon
           points="324,97 325,95 321,94 335,88 337,90 339,86 344,85 342,89 344,87 345,89 347,82 349,88 344,90 331,98 335,101 330,104 327,103 329,107 323,102 325,99 316,97 "
           id="polygon22"
           transform="rotate(-20,793.53261,523.98147)" />
        <polygon
           points="318,101 323,102 322,105 328,107 325,109 326,107 324,108 322,106 320,108 "
           id="polygon23"
           transform="rotate(-20,793.53261,523.98147)" />
        <polygon
           points="355,12 352,16 352,13 "
           id="polygon24"
           transform="rotate(-20,793.53261,523.98147)" />
        <polygon
           points="361,1 363,0 365,4 "
           id="polygon25"
           transform="rotate(-20,793.53261,523.98147)" />
      </g>
      <g
         class="miyazaki kyushu kyushu-okinawa prefecture"
         data-code="45"
         stroke-linejoin="round"
         fill="#eeeeee"
         fill-rule="nonzero"
         stroke="#000000"
         stroke-width="1"
         transform="translate(152,824)"
         id="g26">
        <title
           id="title25">宮崎 / Miyazaki</title>
        <polygon
           points="32,91 27,89 22,84 24,81 24,74 17,73 14,64 9,62 10,57 5,52 0,45 1,43 22,41 19,35 23,30 18,23 18,16 23,14 32,0 36,0 38,1 43,0 48,5 56,5 59,1 63,2 63,7 65,7 54,17 53,21 56,22 52,23 51,25 53,26 47,34 41,51 39,74 34,79 "
           id="polygon26" />
      </g>
      <g
         class="oita kyushu kyushu-okinawa prefecture"
         data-code="44"
         stroke-linejoin="round"
         fill="#eeeeee"
         fill-rule="nonzero"
         stroke="#000000"
         stroke-width="1"
         transform="translate(163,771)"
         id="g27">
        <title
           id="title26">大分 / Oita</title>
        <polygon
           points="56,27 50,36 56,36 53,38 56,40 61,38 62,41 57,41 55,45 65,49 59,49 61,51 57,54 60,55 54,56 54,60 52,60 52,55 48,54 45,58 37,58 32,53 27,54 25,53 21,49 22,43 15,30 9,30 10,36 8,39 0,34 3,29 0,26 2,24 1,19 5,13 12,9 19,10 20,3 33,7 38,0 47,4 49,10 46,18 43,17 43,20 35,22 36,26 40,28 "
           id="polygon27" />
      </g>
      <g
         class="kumamoto kyushu kyushu-okinawa prefecture"
         data-code="43"
         stroke-linejoin="round"
         fill="#eeeeee"
         fill-rule="nonzero"
         stroke="#000000"
         stroke-width="1"
         transform="translate(115,800)"
         id="g28">
        <title
           id="title27">熊本 / kumamoto</title>
        <path
           d="m 8,37 5,1 V 48 L 5,57 1,58 V 52 L 5,51 0,50 4,40 3,37 Z m 12,10 h -6 l -2,-4 7,-4 h 7 l -3,8 z m 4,-13 h 2 v 4 h -3 z m 14,33 -5,-6 -9,4 -5,-4 13,-15 -2,-6 2,1 -1,-2 6,-5 H 26 l 8,-6 1,-5 -8,-8 -1,-5 h 5 l -1,-3 5,-4 4,1 1,-4 8,5 8,5 2,-3 -1,-6 h 6 l 7,13 -1,6 4,4 h -4 l -9,14 -5,2 v 7 l 5,7 -4,5 3,6 z"
           id="path27" />
      </g>
      <g
         class="nagasaki kyushu kyushu-okinawa prefecture"
         data-code="42"
         stroke-linejoin="round"
         fill="#eeeeee"
         fill-rule="nonzero"
         stroke="#000000"
         stroke-width="1"
         transform="translate(44,700)"
         id="g29">
        <title
           id="title28">長崎 / Nagasaki</title>
        <path
           d="m 53,1 2,-1 2,2 -3,3 1,4 -6,6 -1,4 3,-1 -2,4 2,-1 -3,4 v -5 l -2,2 v -3 l -1,3 -3,-2 h 2 l 1,-5 h 2 l -2,-1 4,-4 -3,-2 2,-5 h 4 z m -7,28 -3,6 -6,1 3,-14 1,2 4,1 -1,-3 1,4 3,-1 z m 21,30 1,2 -4,2 -4,-4 h 2 l -1,-3 3,-3 3,2 -1,2 2,1 z m -39,51 -3,5 1,-5 -3,-3 3,-1 v -4 h 2 l 2,-8 -2,11 5,1 -3,2 -2,-2 z m -4,2 -3,-1 v -2 l 2,2 -1,-3 z m -5,1 1,-3 -1,6 -3,-5 z m -13,5 3,-1 1,2 2,-4 4,10 -7,-1 v 5 l -9,-3 1,-2 2,2 1,-1 H 2 l 3,-3 -1,-6 z m 59,-38 -3,1 2,-3 z m 2,2 3,2 -3,2 z m -38,6 2,-3 2,2 z m 25,-12 -3,1 4,-3 z m 12,10 -2,3 2,7 7,2 -1,4 6,7 8,3 -7,5 13,1 2,5 -2,7 -10,4 -2,-6 5,-4 -1,-2 -5,-1 -8,2 -3,6 -8,5 4,-5 -1,-3 2,1 2,-4 -3,2 -1,-7 -4,-1 -3,-6 3,-11 4,4 -1,4 1,-2 3,2 -2,7 11,3 -4,-6 1,-5 -3,-4 -3,2 -1,-6 h -3 v -2 l -4,3 2,-2 -3,-2 v -3 2 l -4,-2 4,-6 -3,-1 1,-3 5,-1 v 3 l 5,-1 z m -17,2 -1,4 -6,2 5,-3 -2,-2 3,-5 h 4 l 2,-3 1,3 z m -34,27 v -2 l 3,3 -3,2 z m 49,-14 -1,3 -1,-3 2,-3 z"
           id="path28" />
      </g>
      <g
         class="saga kyushu kyushu-okinawa prefecture"
         data-code="41"
         stroke-linejoin="round"
         fill="#eeeeee"
         fill-rule="nonzero"
         stroke="#000000"
         stroke-width="1"
         transform="translate(108,773)"
         id="g30">
        <title
           id="title29">佐賀 / Saga</title>
        <polygon
           points="2,6 3,4 6,6 6,0 7,2 11,2 12,7 15,6 28,6 34,12 41,10 40,16 32,21 30,28 25,23 19,29 22,39 14,36 8,29 9,25 2,23 0,16 2,13 5,17 4,13 6,9 "
           id="polygon29" />
      </g>
      <g
         class="fukuoka kyushu kyushu-okinawa prefecture"
         data-code="40"
         stroke-linejoin="round"
         fill="#eeeeee"
         fill-rule="nonzero"
         stroke="#000000"
         stroke-width="1"
         transform="translate(123,752)"
         id="g31">
        <title
           id="title30">福岡 / Fukuoka</title>
        <polygon
           points="20,20 21,15 17,17 14,14 19,15 23,12 25,5 35,3 36,0 42,1 38,5 41,5 43,2 46,4 53,0 49,8 52,10 50,11 55,22 60,22 59,29 52,28 45,32 41,38 42,43 40,45 43,48 40,53 32,48 31,52 27,51 22,55 23,58 18,58 18,52 15,49 17,42 25,37 26,31 19,33 13,27 0,27 7,23 3,20 10,15 13,21 "
           id="polygon30" />
      </g>
      <g
         class="kochi shikoku prefecture"
         data-code="39"
         stroke-linejoin="round"
         fill="#eeeeee"
         fill-rule="nonzero"
         stroke="#000000"
         stroke-width="1"
         transform="translate(251,765)"
         id="g32">
        <title
           id="title31">高知 / Kochi</title>
        <path
           d="m 61,0 13,6 6,-2 1,8 7,1 -2,4 2,4 6,1 L 87,41 75,25 65,21 55,23 v -2 l 1,3 -12,4 h 6 l -6,1 -2,3 -1,-3 -3,4 1,5 -2,6 h -3 l -4,8 -5,1 v 8 l -3,3 3,6 -4,-4 -7,2 -5,-3 -4,2 1,-6 4,-1 -1,-3 H 6 l 2,-3 -3,-13 4,3 6,-8 5,-3 -4,-9 11,-1 3,-10 7,-9 z M 1,69 0,70 v -3 z"
           id="path31" />
      </g>
      <g
         class="ehime shikoku prefecture"
         data-code="38"
         stroke-linejoin="round"
         fill="#eeeeee"
         fill-rule="nonzero"
         stroke="#000000"
         stroke-width="1"
         transform="translate(225,737)"
         id="g33">
        <title
           id="title32">愛媛 / Ehime</title>
        <path
           d="m 34,21 -3,-1 4,-3 z M 55,6 h -4 l 4,-6 2,3 z m 5,-1 h 1 L 60,7 57,6 Z m -2,5 -4,2 1,-5 5,1 z M 32,85 25,83 v 3 h -2 l 1,-5 3,1 -6,-6 h 3 l -2,-4 h 3 l -3,-1 1,-2 -3,-2 4,3 4,-4 v -3 h -4 l 3,-3 h -8 l 2,-3 -2,-1 3,-5 -6,-1 -8,6 -8,1 35,-20 6,-19 9,-3 -2,-4 3,-1 8,14 11,-4 10,2 4,-4 5,2 -2,8 -24,4 -7,9 -3,10 -11,1 4,9 -5,3 -6,8 -4,-3 3,13 z"
           id="path32" />
      </g>
      <g
         class="kagawa shikoku prefecture"
         data-code="37"
         stroke-linejoin="round"
         fill="#eeeeee"
         fill-rule="nonzero"
         stroke="#000000"
         stroke-width="1"
         transform="translate(308,724)"
         id="g34">
        <title
           id="title33">香川 / Kagawa</title>
        <path
           d="M 6,33 1,31 4,21 0,17 l 6,3 13,-10 7,3 4,-4 1,5 3,-3 3,3 -1,3 9,5 -1,3 -13,-2 -9,7 -7,-3 z M 27,5 25,4 h 4 z M 40,0 h 2 L 40,8 38,7 V 5 L 35,9 V 5 L 31,3 Z"
           id="path33" />
      </g>
      <g
         class="tokushima shikoku prefecture"
         data-code="36"
         stroke-linejoin="round"
         fill="#eeeeee"
         fill-rule="nonzero"
         stroke="#000000"
         stroke-width="1"
         transform="translate(312,744)"
         id="g35">
        <title
           id="title34">徳島 / Tokushima</title>
        <path
           d="m 50,2 2,-2 -1,4 z m -9,0 8,-2 v 3 l 3,1 -4,9 7,7 -5,4 7,2 -19,10 -5,7 -6,-1 -2,-4 2,-4 -7,-1 -1,-8 -6,2 -13,-6 2,-8 9,-6 7,3 9,-7 13,2 z"
           id="path34" />
      </g>
      <g
         class="yamaguchi chugoku prefecture"
         data-code="35"
         stroke-linejoin="round"
         fill="#eeeeee"
         fill-rule="nonzero"
         stroke="#000000"
         stroke-width="1"
         transform="translate(168,710)"
         id="g36">
        <title
           id="title35">山口 / Yamaguchi</title>
        <path
           d="m 45,0 2,6 -4,5 2,4 h 5 l -2,5 2,4 6,-2 2,2 3,-4 -1,-4 4,-2 v 7 l 2,2 1,6 5,2 v 5 h -3 l 1,8 -5,2 v 8 l -4,-6 h -4 l -5,-6 -5,2 3,-3 -4,-3 -11,4 -3,-3 -2,3 -1,-2 -2,2 v -4 l -2,5 -4,2 -2,-2 -3,2 -1,-5 -6,-4 -6,7 V 36 L 0,32 4,27 1,21 4,17 h 6 l -5,-2 2,-3 9,2 1,3 h 7 l 6,-2 -1,-3 12,-11 2,1 z m 19,54 -5,2 3,-4 z m 11,-4 8,-2 -5,2 -1,3 -4,-3 -4,3 -2,-5 3,-2 z M 18,15 v -2 l 4,1 z m 33,31 h -3 l 3,-3 z"
           id="path35" />
      </g>
      <g
         class="hiroshima chugoku prefecture"
         data-code="34"
         stroke-linejoin="round"
         fill="#eeeeee"
         fill-rule="nonzero"
         stroke="#000000"
         stroke-width="1"
         transform="translate(230,687)"
         id="g37">
        <title
           id="title36">広島 / Hiroshima</title>
        <path
           d="m 73,40 -1,2 -3,-2 3,3 -2,-1 -2,5 -5,-2 v -3 l -9,2 -3,4 -12,1 -2,4 -7,2 -2,-2 -3,3 1,-3 -3,-6 2,-2 -8,-1 -8,7 1,3 L 5,52 4,46 2,44 v -7 l -2,-2 5,-5 2,-6 -1,-2 6,-5 8,2 2,-3 5,2 8,-2 -3,-5 6,-3 7,-8 13,2 7,2 3,3 -2,7 4,5 -1,5 z m -28,13 -2,3 -2,-3 5,-2 z m -24,1 -1,-4 3,1 -1,8 h -3 l 2,-3 -4,-5 z m -6,-6 1,2 -4,2 z m 20,9 -2,-1 h 3 z m -11,1 h 2 l -1,3 h 3 l -2,2 -6,-1 3,-6 h 3 z m 35,-9 v 3 l -3,-3 z m -2,1 -4,2 1,-2 z m 3,-6 2,1 -3,2 z"
           id="path36" />
      </g>
      <g
         class="okayama chugoku prefecture"
         data-code="33"
         stroke-linejoin="round"
         fill="#eeeeee"
         fill-rule="nonzero"
         stroke="#000000"
         stroke-width="1"
         transform="translate(295,673)"
         id="g38">
        <title
           id="title37">岡山 / Okayama</title>
        <polygon
           points="19,51 15,55 10,52 12,56 8,54 4,38 5,33 1,28 3,21 0,18 1,15 8,14 7,10 14,10 13,7 15,6 18,0 25,2 29,7 39,1 38,3 45,6 46,12 58,8 59,14 51,22 52,29 50,32 54,38 53,41 46,39 49,42 43,49 34,48 39,49 36,53 34,52 33,57 27,55 25,58 23,52 23,55 "
           id="polygon37" />
      </g>
      <g
         class="shimane chugoku prefecture"
         data-code="32"
         stroke-linejoin="round"
         fill="#eeeeee"
         fill-rule="nonzero"
         stroke="#000000"
         stroke-width="1"
         transform="translate(211,610)"
         id="g39">
        <title
           id="title38">島根 / Shimane</title>
        <path
           d="m 74,14 4,-1 -3,4 -3,-2 1,4 -2,-3 z m 5,2 -2,3 v -4 l 2,-1 2,3 z m 4,-11 5,-5 5,5 -1,4 h -3 l 2,2 -5,1 z m -81,95 8,-2 15,-14 10,-6 6,-8 11,-5 3,-6 -2,-4 17,-4 6,-5 3,3 8,-1 -3,2 -2,1 6,8 -1,9 -8,2 2,3 -4,6 -13,-2 -7,8 -6,3 3,5 -8,2 -5,-2 -2,3 -8,-2 -6,5 1,2 -2,6 -5,5 2,2 -4,2 1,4 -3,4 -2,-2 -6,2 -2,-4 2,-5 H 2 l -2,-4 4,-5 z"
           id="path38" />
      </g>
      <g
         class="tottori chugoku prefecture"
         data-code="31"
         stroke-linejoin="round"
         fill="#eeeeee"
         fill-rule="nonzero"
         stroke="#000000"
         stroke-width="1"
         transform="translate(288,658)"
         id="g40">
        <title
           id="title39">鳥取 / Tottori</title>
        <polygon
           points="45,18 46,16 36,22 32,17 25,15 22,21 20,22 21,25 14,25 15,29 8,30 7,33 0,31 4,25 2,22 10,20 11,11 5,3 7,2 9,6 15,8 23,4 34,6 55,5 64,0 71,17 71,21 65,23 53,27 52,21 "
           id="polygon39" />
      </g>
      <g
         class="wakayama kinki prefecture"
         data-code="30"
         stroke-linejoin="round"
         fill="#eeeeee"
         fill-rule="nonzero"
         stroke="#000000"
         stroke-width="1"
         transform="translate(385,737)"
         id="g41">
        <title
           id="title40">和歌山 / Wakayama</title>
        <path
           d="m 41,32 3,6 5,3 -4,5 1,4 -8,5 -1,4 H 35 L 36,56 19,51 14,44 17,41 9,37 4,30 H 0 L 3,25 0,24 6,21 1,18 5,16 4,14 H 8 L 0,6 2,3 5,6 31,0 l 4,9 -4,1 -6,7 5,7 -2,6 z m 8,-9 v 3 l -5,3 v -3 z"
           id="path40" />
      </g>
      <g
         class="nara kinki prefecture"
         data-code="29"
         stroke-linejoin="round"
         fill="#eeeeee"
         fill-rule="nonzero"
         stroke="#000000"
         stroke-width="1"
         transform="translate(410,712)"
         id="g42">
        <title
           id="title41">奈良 / Nara</title>
        <polygon
           points="29,7 26,8 28,9 27,13 36,18 28,24 31,29 29,30 31,33 29,37 30,44 29,47 24,48 19,51 19,54 17,54 17,57 16,57 3,55 5,49 0,42 6,35 10,34 6,25 8,20 6,11 11,0 17,5 21,2 25,5 27,3 "
           id="polygon41" />
      </g>
      <g
         class="hyogo kinki prefecture"
         data-code="28"
         stroke-linejoin="round"
         fill="#eeeeee"
         fill-rule="nonzero"
         stroke="#000000"
         stroke-width="1"
         transform="translate(345,655)"
         id="g43">
        <title
           id="title42">兵庫 / Hyogo</title>
        <path
           d="m 31,90 -8,3 v -5 l -3,1 v -3 l 18,-19 1,2 -7,10 3,9 z M 3,59 4,56 0,50 2,47 1,40 9,32 8,26 14,24 V 20 L 7,3 l 9,-3 17,1 -1,4 4,5 5,-1 1,2 v 6 h -6 l -1,6 7,5 5,-2 2,7 10,2 -1,5 -3,1 1,4 6,3 -2,1 2,11 -3,2 L 53,60 40,66 25,56 11,57 V 53 L 8,58 5,56 Z"
           id="path42" />
      </g>
      <g
         class="osaka kinki prefecture"
         data-code="27"
         stroke-linejoin="round"
         fill="#eeeeee"
         fill-rule="nonzero"
         stroke="#000000"
         stroke-width="1"
         transform="translate(387,695)"
         id="g44">
        <title
           id="title43">大阪 / Osaka</title>
        <polygon
           points="14,5 13,1 16,0 24,8 28,5 27,8 31,9 34,17 29,28 31,37 29,42 3,48 0,45 7,44 14,37 17,28 19,30 17,22 20,20 18,9 20,8 "
           id="polygon43" />
      </g>
      <g
         class="kyoto kinki prefecture"
         data-code="26"
         stroke-linejoin="round"
         fill="#eeeeee"
         fill-rule="nonzero"
         stroke="#000000"
         stroke-width="1"
         transform="translate(377,649)"
         id="g45">
        <title
           id="title44">京都 / Kyoto</title>
        <polygon
           points="2,8 19,0 23,7 15,14 18,15 20,11 20,15 24,17 23,21 25,18 27,19 25,14 31,11 32,14 31,20 34,25 46,27 51,32 48,46 51,56 55,56 59,62 60,66 58,68 54,65 50,68 44,63 41,55 37,54 38,51 34,54 26,46 27,41 17,39 15,32 10,34 3,29 4,23 10,23 10,17 9,15 4,16 0,11 1,7 3,10 "
           id="polygon44" />
      </g>
      <g
         class="shiga kinki prefecture"
         data-code="25"
         stroke-linejoin="round"
         fill="#eeeeee"
         fill-rule="nonzero"
         stroke="#000000"
         stroke-width="1"
         transform="translate(423,655)"
         id="g46">
        <title
           id="title45">滋賀 / Shiga</title>
        <path
           d="m 20,0 7,3 1,6 h 3 l 3,7 1,3 -4,10 2,1 1,10 -4,10 -6,3 -7,-3 -1,5 -3,1 -4,-6 H 5 L 2,40 5,26 0,21 l 3,-4 3,1 3,-7 3,2 6,-3 V 7 l 3,1 z m 0,13 v 3 l -2,-3 -4,3 2,8 -8,8 v 4 l -3,6 2,3 2,-9 6,-1 1,-4 9,-6 1,-4 z"
           id="path45" />
      </g>
      <g
         class="mie kinki prefecture"
         data-code="24"
         stroke-linejoin="round"
         fill="#eeeeee"
         fill-rule="nonzero"
         stroke="#000000"
         stroke-width="1"
         transform="translate(426,683)"
         id="g47">
        <title
           id="title46">三重 / Mie</title>
        <polygon
           points="13,36 11,32 10,28 13,27 14,22 21,25 27,22 31,12 30,2 36,0 43,7 48,15 42,16 43,20 36,32 35,40 51,47 53,52 56,51 55,55 50,55 55,56 55,61 51,62 53,60 50,58 49,60 43,61 46,57 42,57 39,62 39,60 36,63 34,61 34,64 32,62 25,66 22,68 23,73 21,72 22,70 18,73 22,77 20,77 22,80 19,78 20,81 13,85 8,95 3,92 0,86 1,86 1,83 3,83 8,80 8,77 13,76 14,73 13,66 15,62 13,59 15,58 12,53 20,47 11,42 12,38 10,37 "
           id="polygon46" />
      </g>
      <g
         class="aichi chubu prefecture"
         data-code="23"
         stroke-linejoin="round"
         fill="#eeeeee"
         fill-rule="nonzero"
         stroke="#000000"
         stroke-width="1"
         transform="translate(469,673)"
         id="g48">
        <title
           id="title47">愛知 / Aichi</title>
        <polygon
           points="8,28 12,21 5,25 0,17 1,11 5,3 15,0 21,8 26,10 33,8 39,12 46,8 47,14 52,11 60,13 50,33 42,38 42,46 18,52 20,47 23,49 31,43 33,46 35,43 34,40 28,37 26,41 18,40 14,37 16,29 12,40 16,45 13,45 9,41 10,36 8,33 "
           id="polygon47" />
      </g>
      <g
         class="shizuoka chubu prefecture"
         data-code="22"
         stroke-linejoin="round"
         fill="#eeeeee"
         fill-rule="nonzero"
         stroke="#000000"
         stroke-width="1"
         transform="translate(511,659)"
         id="g49">
        <title
           id="title48">静岡 / Shizuoka</title>
        <polygon
           points="44,45 42,54 36,61 38,65 25,61 0,60 0,52 8,47 18,27 33,17 33,5 37,0 40,8 39,19 44,20 48,29 53,27 52,20 56,12 61,17 73,14 77,14 77,27 83,31 81,36 85,42 85,46 78,55 77,61 70,65 64,59 67,45 65,41 66,38 72,37 62,31 55,33 51,38 53,41 "
           id="polygon48" />
      </g>
      <g
         class="gifu chubu prefecture"
         data-code="21"
         stroke-linejoin="round"
         fill="#eeeeee"
         fill-rule="nonzero"
         stroke="#000000"
         stroke-width="1"
         transform="translate(450,608)"
         id="g50">
        <title
           id="title49">岐阜 / Gifu</title>
        <polygon
           points="45,75 40,73 34,65 24,68 20,76 19,82 12,75 6,77 4,76 8,66 7,63 4,56 1,56 0,50 5,41 11,44 12,42 25,41 28,37 22,29 24,23 29,13 26,10 30,5 34,7 35,11 44,0 47,2 52,0 52,2 56,0 66,4 69,10 64,20 67,24 66,28 60,35 55,35 53,40 59,43 64,50 62,53 68,59 66,63 68,66 65,66 67,70 65,73 58,77 52,73 "
           id="polygon49" />
      </g>
      <g
         class="nagano chubu prefecture"
         data-code="20"
         stroke-linejoin="round"
         fill="#eeeeee"
         fill-rule="nonzero"
         stroke="#000000"
         stroke-width="1"
         transform="translate(503,572)"
         id="g51">
        <title
           id="title50">長野 / Nagano</title>
        <polygon
           points="43,77 46,80 43,82 45,87 41,92 41,104 26,114 18,112 13,115 12,109 14,106 12,102 15,102 13,99 15,95 9,89 11,86 6,79 0,76 2,71 7,71 13,64 14,60 11,56 16,46 13,40 19,32 18,29 21,28 22,17 27,10 27,7 34,8 34,13 36,14 44,10 48,12 48,7 53,2 60,0 63,2 63,7 68,11 68,18 59,21 60,23 55,27 54,34 57,39 66,39 67,45 64,47 66,53 63,54 66,57 66,63 70,65 71,70 68,72 64,69 58,71 53,66 "
           id="polygon50" />
      </g>
      <g
         class="yamanashi chubu prefecture"
         data-code="19"
         stroke-linejoin="round"
         fill="#eeeeee"
         fill-rule="nonzero"
         stroke="#000000"
         stroke-width="1"
         transform="translate(546,638)"
         id="g52">
        <title
           id="title51">山梨 / Yamanashi</title>
        <polygon
           points="9,41 4,40 5,29 2,21 0,16 3,14 0,11 10,0 15,5 21,3 25,6 28,4 39,7 43,15 48,18 47,27 38,35 26,38 21,33 17,41 18,48 13,50 "
           id="polygon51" />
      </g>
      <g
         class="fukui chubu prefecture"
         data-code="18"
         stroke-linejoin="round"
         fill="#eeeeee"
         fill-rule="nonzero"
         stroke="#000000"
         stroke-width="1"
         transform="translate(408,618)"
         id="g53">
        <title
           id="title52">福井 / Fukui</title>
        <polygon
           points="18,54 15,58 3,56 0,51 1,45 3,49 10,46 6,49 13,50 15,47 13,48 13,45 19,47 17,45 20,43 18,40 26,41 25,35 28,33 29,38 31,39 32,32 25,19 34,6 34,2 40,0 46,8 56,9 61,14 66,13 64,19 70,27 67,31 54,32 53,34 47,31 42,40 35,37 36,45 33,44 33,47 27,50 24,48 21,55 "
           id="polygon52" />
      </g>
      <g
         class="ishikawa chubu prefecture"
         data-code="17"
         stroke-linejoin="round"
         fill="#eeeeee"
         fill-rule="nonzero"
         stroke="#000000"
         stroke-width="1"
         transform="translate(448,541)"
         id="g54">
        <title
           id="title53">石川 / Ishikawa</title>
        <path
           d="m 37,26 -3,-3 h 7 z m -9,51 3,3 -5,10 -5,1 L 16,86 6,85 0,77 15,62 26,44 27,33 25,29 v -5 l -3,-1 5,-13 25,-10 4,1 1,4 -6,1 -1,9 -4,-1 -7,8 -2,-4 -3,1 -2,9 6,2 3,-4 v 10 l -8,2 -2,10 -3,2 2,4 -2,3 1,4 -2,8 z"
           id="path53" />
      </g>
      <g
         class="toyama chubu prefecture"
         data-code="16"
         stroke-linejoin="round"
         fill="#eeeeee"
         fill-rule="nonzero"
         stroke="#000000"
         stroke-width="1"
         transform="translate(475,575)"
         id="g55">
        <title
           id="title54">富山 / Toyama</title>
        <polygon
           points="23,15 31,11 33,3 43,0 47,3 50,14 49,25 46,26 47,29 41,37 31,33 27,35 27,33 22,35 19,33 10,44 9,40 5,38 1,43 0,35 2,27 1,23 3,20 1,16 4,14 6,4 14,2 11,8 "
           id="polygon54" />
      </g>
      <g
         class="niigata chubu prefecture"
         data-code="15"
         stroke-linejoin="round"
         fill="#eeeeee"
         fill-rule="nonzero"
         stroke="#000000"
         stroke-width="1"
         transform="translate(518,476)"
         id="g56">
        <title
           id="title55">新潟 / Niigata</title>
        <path
           d="M 7,113 4,102 0,99 14,94 23,87 h 7 L 45,75 55,60 60,46 79,34 l 1,2 -1,-1 6,-7 9,-28 8,3 v 7 l 9,6 -2,4 -8,3 v 8 l -3,8 3,5 3,2 -9,10 2,9 h -8 l -1,3 -9,1 -1,3 2,4 -4,6 5,5 -1,14 -7,-7 -2,4 -4,1 1,5 -3,1 v 3 l -12,6 v -7 l -5,-4 v -5 l -3,-2 -7,2 -5,5 v 5 l -4,-2 -8,4 -2,-1 v -5 l -7,-1 v 3 z m 29,-67 -8,1 7,-9 -2,-3 -3,2 v -6 l 4,-8 9,-9 -4,16 7,1 -3,9 z"
           id="path55" />
      </g>
      <g
         class="kanagawa kanto prefecture"
         data-code="14"
         stroke-linejoin="round"
         fill="#eeeeee"
         fill-rule="nonzero"
         stroke="#000000"
         stroke-width="1"
         transform="translate(584,656)"
         id="g57">
        <title
           id="title56">神奈川 / Kanagawa</title>
        <polygon
           points="26,22 15,25 11,28 12,34 10,34 4,30 4,17 0,17 9,9 10,0 24,6 28,11 28,6 30,6 27,4 30,2 44,9 40,13 36,12 39,16 36,16 36,23 42,26 38,30 39,33 35,33 36,28 33,24 "
           id="polygon56" />
      </g>
      <g
         class="tokyo kanto prefecture"
         data-code="13"
         stroke-linejoin="round"
         fill="#eeeeee"
         fill-rule="nonzero"
         stroke="#000000"
         stroke-width="1"
         transform="translate(585,642)"
         id="g58">
        <title
           id="title57">東京 / Tokyo</title>
        <path
           d="m 49,173 v 5 l -5,-7 z m -15,-60 -2,2 -3,-1 2,-3 z m -23,-9 2,2 -2,1 z m 7,-6 -2,-2 2,-4 z m 4,-23 v -6 l 4,1 v 6 z m 26,-68 1,5 -2,4 -6,-1 2,4 -4,1 h 4 v 3 l -14,-7 -3,2 3,2 h -2 v 5 L 23,20 9,14 4,11 0,3 3,0 18,4 23,8 30,5 v 4 l 6,-3 4,1 2,-2 z"
           id="path57" />
      </g>
      <g
         class="chiba kanto prefecture"
         data-code="12"
         stroke-linejoin="round"
         fill="#eeeeee"
         fill-rule="nonzero"
         stroke="#000000"
         stroke-width="1"
         transform="translate(627,629)"
         id="g59">
        <title
           id="title58">千葉 / Chiba</title>
        <polygon
           points="4,63 3,58 5,53 1,49 4,45 7,46 7,42 13,39 18,33 11,26 6,30 5,29 7,25 6,20 6,13 0,0 8,10 19,15 37,11 37,8 55,20 55,24 45,24 34,35 32,57 19,61 7,75 0,71 5,69 3,66 "
           id="polygon58" />
      </g>
      <g
         class="saitama kanto prefecture"
         data-code="11"
         stroke-linejoin="round"
         fill="#eeeeee"
         fill-rule="nonzero"
         stroke="#000000"
         stroke-width="1"
         transform="translate(573,618)"
         id="g60">
        <title
           id="title59">埼玉 / Saitama</title>
        <polygon
           points="21,0 32,2 38,6 48,4 49,5 51,12 54,11 60,24 60,31 54,29 52,31 48,30 42,33 42,29 35,32 30,28 15,24 12,27 1,24 0,19 16,10 "
           id="polygon59" />
      </g>
      <g
         class="gunma kanto prefecture"
         data-code="10"
         stroke-linejoin="round"
         fill="#eeeeee"
         fill-rule="nonzero"
         stroke="#000000"
         stroke-width="1"
         transform="translate(557,570)"
         id="g61">
        <title
           id="title60">群馬 / Gunma</title>
        <polygon
           points="26,14 26,11 29,10 28,5 32,4 34,0 41,7 49,9 47,12 50,14 47,17 46,26 54,29 48,42 53,49 62,48 64,52 54,54 48,50 37,48 32,58 16,67 12,65 12,59 9,56 12,55 10,49 13,47 12,41 3,41 0,36 1,29 6,25 5,23 14,20 "
           id="polygon60" />
      </g>
      <g
         class="tochigi kanto prefecture"
         data-code="9"
         stroke-linejoin="round"
         fill="#eeeeee"
         fill-rule="nonzero"
         stroke="#000000"
         stroke-width="1"
         transform="translate(603,563)"
         id="g62">
        <title
           id="title61">栃木 / Tochigi</title>
        <polygon
           points="44,46 33,48 30,53 27,53 26,57 19,60 18,59 16,55 7,56 2,49 8,36 0,33 1,24 4,21 1,19 3,16 28,0 40,3 46,7 47,13 47,24 48,27 45,29 47,39 "
           id="polygon61" />
      </g>
      <g
         class="ibaraki kanto prefecture"
         data-code="8"
         stroke-linejoin="round"
         fill="#eeeeee"
         fill-rule="nonzero"
         stroke="#000000"
         stroke-width="1"
         transform="translate(622,575)"
         id="g63">
        <title
           id="title62">茨城 / Ibaraki</title>
        <polygon
           points="47,35 44,42 46,52 51,61 49,63 51,66 52,62 60,74 42,62 42,65 24,69 13,64 5,54 2,55 0,48 7,45 8,41 11,41 14,36 25,34 28,27 26,17 29,15 28,12 28,1 38,10 44,4 44,0 54,5 46,29 "
           id="polygon62" />
      </g>
      <g
         class="fukushima tohoku prefecture"
         data-code="7"
         stroke-linejoin="round"
         fill="#eeeeee"
         fill-rule="nonzero"
         stroke="#000000"
         stroke-width="1"
         transform="translate(594,511)"
         id="g64">
        <title
           id="title63">福島 / Fukushima</title>
        <polygon
           points="28,11 25,9 32,11 38,10 40,14 44,13 47,15 53,14 56,10 54,9 55,0 61,0 65,4 74,4 75,10 80,12 79,10 83,10 83,4 87,4 93,18 93,45 91,61 82,69 72,64 72,68 66,74 56,65 55,59 49,55 37,52 12,68 4,66 5,52 0,47 4,41 2,37 3,34 12,33 13,30 21,30 19,21 "
           id="polygon63" />
      </g>
      <g
         class="yamagata tohoku prefecture"
         data-code="6"
         stroke-linejoin="round"
         fill="#eeeeee"
         fill-rule="nonzero"
         stroke="#000000"
         stroke-width="1"
         transform="translate(612,439)"
         id="g65">
        <title
           id="title64">山形 / Yamagata</title>
        <polygon
           points="26,85 22,86 20,82 14,83 7,81 4,76 7,68 7,60 15,57 17,53 8,47 8,40 0,37 13,14 14,1 24,0 28,5 42,8 44,13 48,14 53,22 51,30 48,30 52,41 45,53 46,59 43,65 36,67 37,72 36,81 38,82 35,86 29,87 "
           id="polygon64" />
      </g>
      <g
         class="akita tohoku prefecture"
         data-code="5"
         stroke-linejoin="round"
         fill="#eeeeee"
         fill-rule="nonzero"
         stroke="#000000"
         stroke-width="1"
         transform="translate(617,352)"
         id="g66">
        <title
           id="title65">秋田 / Akita</title>
        <polygon
           points="14,7 17,3 29,5 32,2 39,7 42,5 45,7 55,0 55,5 60,5 59,16 55,21 57,39 52,40 55,44 52,48 54,53 50,59 47,70 55,83 52,86 55,91 54,97 47,102 43,101 39,100 37,95 23,92 19,87 9,88 11,78 16,69 17,47 11,39 3,42 0,33 6,36 12,28 15,19 15,11 10,6 "
           id="polygon65" />
      </g>
      <g
         class="miyagi tohoku prefecture"
         data-code="4"
         stroke-linejoin="round"
         fill="#eeeeee"
         fill-rule="nonzero"
         stroke="#000000"
         stroke-width="1"
         transform="translate(648,445)"
         id="g67">
        <title
           id="title66">宮城 / Miyagi</title>
        <path
           d="m 33,70 h -4 v 6 h -4 l 1,2 -5,-2 -1,-6 H 11 L 7,66 H 1 L 0,61 7,59 10,53 9,47 16,35 12,24 h 3 l 2,-8 -5,-8 4,1 7,-5 10,5 8,-1 -2,4 6,4 4,-5 6,3 2,-14 7,1 3,7 -5,-3 1,5 -4,4 3,5 -2,-2 -4,3 4,2 -3,6 h 4 v 4 l -3,-2 2,4 -3,1 1,3 3,-1 -2,2 2,2 v 4 l -4,-2 1,-3 -3,1 2,-2 -1,-2 -17,3 -3,3 4,2 -5,1 3,1 -6,10 z m 10,-29 1,2 h -2 z"
           id="path66" />
      </g>
      <g
         class="iwate tohoku prefecture"
         data-code="3"
         stroke-linejoin="round"
         fill="#eeeeee"
         fill-rule="nonzero"
         stroke="#000000"
         stroke-width="1"
         transform="translate(664,354)"
         id="g68">
        <title
           id="title67">岩手 / Iwate</title>
        <polygon
           points="8,19 12,14 16,15 29,5 31,8 35,5 40,7 46,0 54,11 52,16 57,19 55,23 61,28 64,43 62,53 65,49 66,54 68,55 62,60 64,62 67,59 67,63 63,63 63,68 60,69 65,68 60,71 62,73 60,75 64,74 58,81 62,83 57,83 60,86 57,86 59,88 53,89 52,86 54,91 52,91 52,94 50,90 48,92 41,91 39,105 33,102 29,107 23,103 25,99 17,100 7,95 8,89 5,84 8,81 0,68 3,57 7,51 5,46 8,42 5,38 10,37 "
           id="polygon67" />
      </g>
      <g
         class="aomori tohoku prefecture"
         data-code="2"
         stroke-linejoin="round"
         fill="#eeeeee"
         fill-rule="nonzero"
         stroke="#000000"
         stroke-width="1"
         transform="translate(624,287)"
         id="g69">
        <title
           id="title68">青森 / Aomori</title>
        <polygon
           points="61,39 65,23 61,16 55,22 41,25 47,0 64,11 73,6 71,37 73,51 77,62 81,61 86,67 80,74 75,72 71,75 69,72 56,82 52,81 53,70 48,70 48,65 38,72 35,70 32,72 25,67 22,70 10,68 7,72 3,71 3,63 0,60 6,51 12,51 18,47 21,31 17,27 20,26 21,19 27,23 31,20 35,23 37,38 40,45 46,41 45,37 47,33 58,42 "
           id="polygon68" />
      </g>
      <g
         class="hokkaido prefecture"
         data-code="1"
         stroke-linejoin="round"
         fill="#eeeeee"
         fill-rule="nonzero"
         stroke="#000000"
         stroke-width="1"
         transform="translate(602,10)"
         id="g70">
        <title
           id="title69">北海道 / Hokkaido</title>
        <path
           d="m 4,240 -1,5 -3,1 v -9 l 6,-2 z m 29,21 -1,-11 -4,-7 -5,-1 -2,-5 -4,-1 -2,-5 4,-8 -2,-11 2,-3 9,-2 6,-9 3,4 2,-1 4,-9 6,-5 -10,-14 1,-7 7,-2 13,10 11,-3 v 3 l 7,3 5,-3 6,-9 -6,-25 3,-5 7,-3 4,-6 -1,-23 4,-8 1,-10 -3,-18 -8,-19 3,-9 -1,-6 2,3 5,-1 6,-7 26,27 8,13 16,17 29,19 29,5 1,4 5,5 h 19 l 22,-27 2,5 -10,23 v 10 l 3,6 10,3 -2,2 1,-3 h -6 l 5,12 6,7 4,1 7,-8 7,-1 -10,8 -2,7 -17,3 -2,6 -4,5 h -5 l -2,-2 1,-2 -3,-1 -3,6 3,2 -15,1 -8,-3 -15,8 -14,16 -9,14 -3,9 1,15 -2,8 -14,-11 -23,-9 -28,-17 -13,-2 3,-3 -15,8 -16,16 -3,-3 h 4 l -5,-1 -2,-6 -8,-8 -11,1 -5,7 -3,10 1,4 12,8 h 10 l 9,12 9,3 2,3 -6,5 -4,2 -9,-4 -3,2 v -4 l -3,-1 -2,5 -7,4 v 9 l -8,4 -3,5 -7,-3 -3,-6 1,-9 z m 38,-213 2,-3 4,2 2,5 -4,3 -4,-3 z M 65,35 v -2 l 2,2 -1,10 -3,-10 z m 304,-18 -2,-4 h -2 l -2,4 2,6 -1,3 -5,2 -2,7 -7,-1 1,7 -10,9 v 4 h -6 v 2 l 4,2 v 4 l -3,3 -4,-1 v 5 l -3,-3 1,5 -3,7 4,1 5,-9 5,-1 5,-10 10,-9 2,-10 5,3 6,-2 15,-17 13,-9 9,-2 1,-3 -3,-4 3,-4 -5,-2 -6,2 -12,18 -11,2 z m -79,82 5,-6 8,-2 5,-7 3,1 3,-6 -10,3 -8,-5 -3,2 -4,10 -9,15 v 3 l -14,15 2,7 5,-1 v 4 l 1,-13 8,-5 1,-5 h 3 l 1,-7 z m 32,26 12,-10 -5,-2 -4,3 1,1 -7,2 v 4 l 2,-1 z m -22,17 4,-5 -7,2 z m -9,4 2,-3 -4,1 z"
           id="path69" />
      </g>
    </g>
    <g
       class="boundary-line"
       stroke="#eeeeee"
       stroke-width="12"
       stroke-linejoin="round"
       id="g72"
       transform="translate(65.235967,38.07884)"
       style="stroke:#aeaeae;stroke-opacity:1">
      <path
         id="line71"
         style="fill:none;stroke-width:1.94399921;stroke-dasharray:1.94399921,1.94399921;stroke-dashoffset:0;stroke:#aeaeae;stroke-opacity:1"
         d="m 541.00085,38.21174 0,209.89451 -162.07066,132.05574 -332.717189,0"
         sodipodi:nodetypes="cccc" />
    </g>
  </g>
  <metadata
     id="metadata74">
    <rdf:RDF>
      <cc:Work
         rdf:about="">
        <dc:title>Japanese Prefectures</dc:title>
      </cc:Work>
    </rdf:RDF>
  </metadata>
</svg>
